<?xml version="1.0" standalone="no"?>
<!DOCTYPE svg PUBLIC "-//W3C//DTD SVG 20010904//EN"
 "http://www.w3.org/TR/2001/REC-SVG-20010904/DTD/svg10.dtd">
<svg version="1.0" xmlns="http://www.w3.org/2000/svg"
 width="512.000000pt" height="512.000000pt" viewBox="0 0 512.000000 512.000000"
 preserveAspectRatio="xMidYMid meet">

<g transform="translate(0.000000,512.000000) scale(0.100000,-0.100000)"
fill="#000000" stroke="none">
<path d="M2420 4794 c-298 -38 -551 -162 -761 -373 -237 -238 -359 -510 -375
-841 -16 -321 97 -653 304 -890 l39 -44 -101 -67 c-193 -129 -336 -273 -471
-474 -258 -386 -404 -920 -409 -1497 -1 -205 1 -212 68 -262 l27 -21 1819 0
1819 0 27 21 c56 41 69 69 73 157 4 106 -16 399 -39 557 -102 699 -391 1217
-846 1519 l-101 67 39 44 c206 236 319 564 304 885 -15 333 -138 610 -375 846
-185 185 -380 293 -631 350 -83 19 -331 33 -410 23z m371 -343 c179 -46 319
-127 449 -260 129 -130 212 -278 257 -457 24 -95 24 -333 0 -428 -46 -182
-125 -323 -257 -456 -137 -139 -280 -221 -466 -267 -98 -24 -324 -24 -424 0
-364 88 -636 359 -727 723 -24 95 -24 333 0 428 46 182 128 328 261 462 158
157 305 231 556 278 59 11 277 -3 351 -23z m-797 -2076 c193 -95 346 -130 566
-130 220 0 373 35 566 131 l91 44 44 -18 c24 -11 76 -38 114 -62 324 -198 543
-509 671 -952 54 -189 83 -370 109 -690 l5 -58 -1600 0 -1599 0 5 73 c55 785
290 1302 724 1592 57 38 197 115 209 115 3 0 46 -20 95 -45z"/>
</g>
</svg>
